<?xml version="1.0" encoding="iso-8859-1"?>
<!-- Generator: Adobe Illustrator 19.0.0, SVG Export Plug-In . SVG Version: 6.00 Build 0)  -->
<svg version="1.1" id="Capa_1" xmlns="http://www.w3.org/2000/svg" xmlns:xlink="http://www.w3.org/1999/xlink" x="0px" y="0px"
	 viewBox="0 0 512 512" style="enable-background:new 0 0 512 512;" xml:space="preserve">
<g>
	<g>
		<path d="M256,309.125c-31.725-35.714-89.423-12.353-89.423,38.269c0,38.113,34.615,60.952,79.599,99.941
			c2.819,2.443,6.321,3.665,9.824,3.665c3.502,0,7.005-1.222,9.824-3.665c43.074-37.331,79.599-61.171,79.599-99.941
			C345.423,296.682,287.669,273.474,256,309.125z M256,416.238c-37.771-32.116-59.423-48.559-59.423-68.844
			c0-12.619,7.629-25.394,22.211-25.394c16.108,0,22.336,19.851,22.768,21.296c1.743,6.573,7.64,11.152,14.444,11.152
			s12.701-4.579,14.444-11.152c0.432-1.445,6.659-21.296,22.768-21.296c14.582,0,22.211,12.775,22.211,25.394
			C315.423,368.173,291.5,386.054,256,416.238z"/>
	</g>
</g>
<g>
	<g>
		<path d="M497,240h-16V75c0-41.355-33.645-75-75-75c-24.485,0-46.264,11.797-59.961,30.002c-0.013,0-0.026-0.002-0.039-0.002h-90
			c-8.284,0-15,6.716-15,15v56.46L216.729,150h-38.308c-4.527-12.766-14.655-22.903-27.421-27.43V15c0-8.284-6.716-15-15-15H76
			c-8.284,0-15,6.716-15,15v107.57c-17.461,6.191-30,22.874-30,42.43v75H15c-8.284,0-15,6.716-15,15s6.716,15,15,15h17.749
			l21.798,175.302C59.299,483.326,91.293,512,128.967,512h254.066c37.674,0,69.668-28.674,74.422-66.707L479.251,270H497
			c8.284,0,15-6.716,15-15S505.284,240,497,240z M271,60h60c0,10.492,0,19.508,0,30h-60V60z M265.271,120H331v30h-80.729
			L265.271,120z M241,180h90v60h-90V180z M181,180h30v60h-30V180z M91,30h30v30H91V30z M61,165c0-8.271,6.729-15,15-15
			c8.284,0,15-6.716,15-15V90h30v45c0,8.284,6.716,15,15,15c8.271,0,15,6.729,15,15v75H61V165z M427.686,441.582
			C424.853,464.246,405.239,482,383.033,482H128.967c-22.206,0-41.819-17.754-44.65-40.409L62.98,270c24.908,0,372.079,0,386.039,0
			L427.686,441.582z M451,120h-45c-8.284,0-15,6.716-15,15s6.716,15,15,15h45v30h-45c-8.284,0-15,6.716-15,15s6.716,15,15,15h45v30
			h-90c0-19.464,0-151.686,0-165c0-24.813,20.187-45,45-45c19.555,0,36.228,12.542,42.42,30H406c-8.284,0-15,6.716-15,15
			s6.716,15,15,15h45V120z"/>
	</g>
</g>
<g>
</g>
<g>
</g>
<g>
</g>
<g>
</g>
<g>
</g>
<g>
</g>
<g>
</g>
<g>
</g>
<g>
</g>
<g>
</g>
<g>
</g>
<g>
</g>
<g>
</g>
<g>
</g>
<g>
</g>
</svg>
