<?xml version="1.0" encoding="iso-8859-1"?>
<!-- Generator: Adobe Illustrator 19.0.0, SVG Export Plug-In . SVG Version: 6.00 Build 0)  -->
<svg version="1.1" id="Layer_1" xmlns="http://www.w3.org/2000/svg" xmlns:xlink="http://www.w3.org/1999/xlink" x="0px" y="0px"
	 viewBox="0 0 512 512" style="enable-background:new 0 0 512 512;" xml:space="preserve">
<g>
	<g>
		<path d="M476.096,263.522v-59.72H356.522v-77.89l22.062-33.543c17.679-26.851,10.214-63.072-16.637-80.761
			c-9.506-6.257-20.552-9.568-31.953-9.568c-19.761,0-38.001,9.797-48.808,26.205l-62.676,95.295L154,0L1.515,79.626l30.255,57.939
			l-0.063-0.021l2.887,374.395h239.753l-2.887,0.06h239.024V326.74L476.096,263.522z M468.6,315.1H356.522h-31.234h-12.712
			l12.712-24.914l4.997-9.797h26.237h93.192L468.6,315.1z M444.862,235.037v14.118h-88.341h-21.666v-14.118h21.666H444.862z
			 M255.458,124.21l23.345,14.582l16.547-26.491l-22.723-14.194l0.001-0.001l17.105-26.016l29.121,18.19L335.4,63.789
			l-28.498-17.801v-0.001l0.375-0.562c5.008-7.611,13.504-12.15,22.718-12.15c5.279,0,10.391,1.53,14.784,4.425
			c12.462,8.215,15.929,25.029,7.715,37.502l-55.763,84.79l-33.514,12.494l-24.258-9.787l-3.904-7.475L255.458,124.21z
			 M140.777,42.145l52.215,100.013l-69.529,30.235l-47.747-18.137L43.66,92.86L140.777,42.145z M271.461,326.959v150.861H62.942
			V197.275v-14.451l34.535,13.118l26.747,10.151l55.899-24.196l19.834-7.746l62.812,31.838l4.904-1.832l49.537-18.459l8.079-3.019
			v21.125h-20h-1.666v2.54v57.585L271.461,326.959z M479.251,480.766H356.522h-53.827v-2.946V346.334h22.593h31.234h122.729V480.766
			z"/>
	</g>
</g>
<g>
</g>
<g>
</g>
<g>
</g>
<g>
</g>
<g>
</g>
<g>
</g>
<g>
</g>
<g>
</g>
<g>
</g>
<g>
</g>
<g>
</g>
<g>
</g>
<g>
</g>
<g>
</g>
<g>
</g>
</svg>
